<?xml version="1.0" encoding="UTF-8" standalone="no"?>
<svg width="356.394mm" height="209.285mm"
 xmlns="http://www.w3.org/2000/svg" xmlns:xlink="http://www.w3.org/1999/xlink" version="1.1">
<title>Average Food Insecurity by Race</title>
<desc>Rendered by Tableau</desc>
<defs>
<clipPath id="clipPath1">
<path vector-effect="none" fill-rule="evenodd" d="M89,668 L1348,668 L1348,739 L89,739 L89,668"/>
</clipPath>
<clipPath id="clipPath2">
<path vector-effect="none" fill-rule="evenodd" d="M-1,42 L91,42 L91,670 L-1,670 L-1,42"/>
</clipPath>
<clipPath id="clipPath3">
<path vector-effect="none" fill-rule="evenodd" d="M90,43 L1348,43 L1348,670 L90,670 L90,43"/>
</clipPath>
<clipPath id="clipPath4">
<path vector-effect="none" fill-rule="evenodd" d="M90,43 L1348,43 L1348,670 L90,670 L90,43"/>
</clipPath>
<clipPath id="clipPath5">
<path vector-effect="none" fill-rule="evenodd" d="M90,43 L1348,43 L1348,670 L90,670 L90,43"/>
</clipPath>
<clipPath id="clipPath6">
<path vector-effect="none" fill-rule="evenodd" d="M90,43 L1348,43 L1348,670 L90,670 L90,43"/>
</clipPath>
<clipPath id="clipPath7">
<path vector-effect="none" fill-rule="evenodd" d="M90,43 L1348,43 L1348,670 L90,670 L90,43"/>
</clipPath>
<clipPath id="clipPath8">
<path vector-effect="none" fill-rule="evenodd" d="M90,43 L1348,43 L1348,670 L90,670 L90,43"/>
</clipPath>
<clipPath id="clipPath9">
<path vector-effect="none" fill-rule="evenodd" d="M90,43 L1348,43 L1348,670 L90,670 L90,43"/>
</clipPath>
<clipPath id="clipPath10">
<path vector-effect="none" fill-rule="evenodd" d="M90,43 L1348,43 L1348,670 L90,670 L90,43"/>
</clipPath>
<clipPath id="clipPath11">
<path vector-effect="none" fill-rule="evenodd" d="M90,43 L1347,43 L1347,669 L90,669 L90,43"/>
</clipPath>
<clipPath id="clipPath12">
<path vector-effect="none" fill-rule="evenodd" d="M90,43 L1348,43 L1348,670 L90,670 L90,43"/>
</clipPath>
<clipPath id="clipPath13">
<path vector-effect="none" fill-rule="evenodd" d="M90,43 L1347,43 L1347,669 L90,669 L90,43"/>
</clipPath>
<clipPath id="clipPath14">
<path vector-effect="none" fill-rule="evenodd" d="M90,43 L1348,43 L1348,670 L90,670 L90,43"/>
</clipPath>
<clipPath id="clipPath15">
<path vector-effect="none" fill-rule="evenodd" d="M90,43 L1348,43 L1348,670 L90,670 L90,43"/>
</clipPath>
<clipPath id="clipPath16">
<path vector-effect="none" fill-rule="evenodd" d="M90,43 L1347,43 L1347,669 L90,669 L90,43"/>
</clipPath>
<clipPath id="clipPath17">
<path vector-effect="none" fill-rule="evenodd" d="M90,43 L1348,43 L1348,670 L90,670 L90,43"/>
</clipPath>
<clipPath id="clipPath18">
<path vector-effect="none" fill-rule="evenodd" d="M90,43 L1347,43 L1347,669 L90,669 L90,43"/>
</clipPath>
<clipPath id="clipPath19">
<path vector-effect="none" fill-rule="evenodd" d="M90,43 L1348,43 L1348,670 L90,670 L90,43"/>
</clipPath>
<clipPath id="clipPath20">
<path vector-effect="none" fill-rule="evenodd" d="M90,43 L1348,43 L1348,670 L90,670 L90,43"/>
</clipPath>
<clipPath id="clipPath21">
<path vector-effect="none" fill-rule="evenodd" d="M90,43 L1347,43 L1347,669 L90,669 L90,43"/>
</clipPath>
<clipPath id="clipPath22">
<path vector-effect="none" fill-rule="evenodd" d="M90,43 L1348,43 L1348,670 L90,670 L90,43"/>
</clipPath>
<clipPath id="clipPath23">
<path vector-effect="none" fill-rule="evenodd" d="M90,43 L1347,43 L1347,669 L90,669 L90,43"/>
</clipPath>
<clipPath id="clipPath24">
<path vector-effect="none" fill-rule="evenodd" d="M90,43 L1348,43 L1348,670 L90,670 L90,43"/>
</clipPath>
<clipPath id="clipPath25">
<path vector-effect="none" fill-rule="evenodd" d="M90,43 L1348,43 L1348,670 L90,670 L90,43"/>
</clipPath>
<clipPath id="clipPath26">
<path vector-effect="none" fill-rule="evenodd" d="M90,43 L1347,43 L1347,669 L90,669 L90,43"/>
</clipPath>
<clipPath id="clipPath27">
<path vector-effect="none" fill-rule="evenodd" d="M90,43 L1348,43 L1348,670 L90,670 L90,43"/>
</clipPath>
<clipPath id="clipPath28">
<path vector-effect="none" fill-rule="evenodd" d="M90,43 L1347,43 L1347,669 L90,669 L90,43"/>
</clipPath>
<clipPath id="clipPath29">
<path vector-effect="none" fill-rule="evenodd" d="M90,43 L1348,43 L1348,670 L90,670 L90,43"/>
</clipPath>
<clipPath id="clipPath30">
<path vector-effect="none" fill-rule="evenodd" d="M90,43 L1348,43 L1348,670 L90,670 L90,43"/>
</clipPath>
<clipPath id="clipPath31">
<path vector-effect="none" fill-rule="evenodd" d="M90,43 L1347,43 L1347,669 L90,669 L90,43"/>
</clipPath>
<clipPath id="clipPath32">
<path vector-effect="none" fill-rule="evenodd" d="M90,43 L1348,43 L1348,670 L90,670 L90,43"/>
</clipPath>
<clipPath id="clipPath33">
<path vector-effect="none" fill-rule="evenodd" d="M90,43 L1347,43 L1347,669 L90,669 L90,43"/>
</clipPath>
<clipPath id="clipPath34">
<path vector-effect="none" fill-rule="evenodd" d="M90,43 L1348,43 L1348,670 L90,670 L90,43"/>
</clipPath>
<clipPath id="clipPath35">
<path vector-effect="none" fill-rule="evenodd" d="M90,43 L1348,43 L1348,670 L90,670 L90,43"/>
</clipPath>
<clipPath id="clipPath36">
<path vector-effect="none" fill-rule="evenodd" d="M90,43 L1347,43 L1347,669 L90,669 L90,43"/>
</clipPath>
<clipPath id="clipPath37">
<path vector-effect="none" fill-rule="evenodd" d="M90,43 L1348,43 L1348,670 L90,670 L90,43"/>
</clipPath>
<clipPath id="clipPath38">
<path vector-effect="none" fill-rule="evenodd" d="M90,43 L1347,43 L1347,669 L90,669 L90,43"/>
</clipPath>
<clipPath id="clipPath39">
<path vector-effect="none" fill-rule="evenodd" d="M90,43 L1348,43 L1348,670 L90,670 L90,43"/>
</clipPath>
<clipPath id="clipPath40">
<path vector-effect="none" fill-rule="evenodd" d="M90,43 L1348,43 L1348,670 L90,670 L90,43"/>
</clipPath>
<clipPath id="clipPath41">
<path vector-effect="none" fill-rule="evenodd" d="M90,43 L1348,43 L1348,670 L90,670 L90,43"/>
</clipPath>
<clipPath id="clipPath42">
<path vector-effect="none" fill-rule="evenodd" d="M90,43 L1348,43 L1348,670 L90,670 L90,43"/>
</clipPath>
</defs>
<g fill="none" stroke="black" stroke-width="1" fill-rule="evenodd" stroke-linecap="square" stroke-linejoin="bevel" >

<g fill="#ffffff" fill-opacity="1" stroke="none" transform="matrix(1,0,0,1,0,0)"
font-family="Benton Sans Book" font-size="16" font-weight="400" font-style="normal" 
>
<rect x="0" y="0" width="1347" height="791"/>
</g>

<g fill="#ffffff" fill-opacity="1" stroke="none" transform="matrix(1,0,0,1,0,0)"
font-family="Benton Sans Book" font-size="16" font-weight="400" font-style="normal" 
>
<rect x="0" y="43" width="1347" height="695"/>
</g>

<g clip-path="url(#clipPath1)"><g fill="none" stroke="#000000" stroke-opacity="1" stroke-width="1" stroke-linecap="square" stroke-linejoin="bevel" transform="matrix(1,0,0,1,90,669)"
font-family="Benton Sans Book" font-size="16" font-weight="400" font-style="normal" 
>
</g>
</g>

<g clip-path="url(#clipPath1)"><g fill="none" stroke="#000000" stroke-opacity="1" stroke-width="1" stroke-linecap="butt" stroke-linejoin="bevel" transform="matrix(1,0,0,1,90,669)"
font-family="Benton Sans Book" font-size="16" font-weight="400" font-style="normal" 
>
<polyline fill="none" vector-effect="none" points="0,0 0,5 " />
<polyline fill="none" vector-effect="none" points="210,0 210,5 " />
<polyline fill="none" vector-effect="none" points="419,0 419,5 " />
<polyline fill="none" vector-effect="none" points="629,0 629,5 " />
<polyline fill="none" vector-effect="none" points="838,0 838,5 " />
<polyline fill="none" vector-effect="none" points="1048,0 1048,5 " />
<polyline fill="none" vector-effect="none" points="1257,0 1257,5 " />
</g>
</g>

<g clip-path="url(#clipPath1)"><g fill="none" stroke="#666666" stroke-opacity="1" stroke-width="1" stroke-linecap="square" stroke-linejoin="bevel" transform="matrix(1,0,0,1,90,669)"
font-family="Calibri" font-size="20" font-weight="400" font-style="normal" 
>
<text fill="#666666" fill-opacity="1" stroke="none" xml:space="preserve" x="1.45313" y="26" font-family="Calibri" font-size="20" font-weight="400" font-style="normal" 
 >2018</text>
</g>
</g>

<g clip-path="url(#clipPath1)"><g fill="none" stroke="#666666" stroke-opacity="1" stroke-width="1" stroke-linecap="square" stroke-linejoin="bevel" transform="matrix(1,0,0,1,90,669)"
font-family="Calibri" font-size="20" font-weight="400" font-style="normal" 
>
<text fill="#666666" fill-opacity="1" stroke="none" xml:space="preserve" x="188.438" y="26" font-family="Calibri" font-size="20" font-weight="400" font-style="normal" 
 >2019</text>
</g>
</g>

<g clip-path="url(#clipPath1)"><g fill="none" stroke="#666666" stroke-opacity="1" stroke-width="1" stroke-linecap="square" stroke-linejoin="bevel" transform="matrix(1,0,0,1,90,669)"
font-family="Calibri" font-size="20" font-weight="400" font-style="normal" 
>
<text fill="#666666" fill-opacity="1" stroke="none" xml:space="preserve" x="396.156" y="26" font-family="Calibri" font-size="20" font-weight="400" font-style="normal" 
 >2020</text>
</g>
</g>

<g clip-path="url(#clipPath1)"><g fill="none" stroke="#666666" stroke-opacity="1" stroke-width="1" stroke-linecap="square" stroke-linejoin="bevel" transform="matrix(1,0,0,1,90,669)"
font-family="Calibri" font-size="20" font-weight="400" font-style="normal" 
>
<text fill="#666666" fill-opacity="1" stroke="none" xml:space="preserve" x="607.813" y="26" font-family="Calibri" font-size="20" font-weight="400" font-style="normal" 
 >2021</text>
</g>
</g>

<g clip-path="url(#clipPath1)"><g fill="none" stroke="#666666" stroke-opacity="1" stroke-width="1" stroke-linecap="square" stroke-linejoin="bevel" transform="matrix(1,0,0,1,90,669)"
font-family="Calibri" font-size="20" font-weight="400" font-style="normal" 
>
<text fill="#666666" fill-opacity="1" stroke="none" xml:space="preserve" x="815.453" y="26" font-family="Calibri" font-size="20" font-weight="400" font-style="normal" 
 >2022</text>
</g>
</g>

<g clip-path="url(#clipPath1)"><g fill="none" stroke="#666666" stroke-opacity="1" stroke-width="1" stroke-linecap="square" stroke-linejoin="bevel" transform="matrix(1,0,0,1,90,669)"
font-family="Calibri" font-size="20" font-weight="400" font-style="normal" 
>
<text fill="#666666" fill-opacity="1" stroke="none" xml:space="preserve" x="1025.2" y="26" font-family="Calibri" font-size="20" font-weight="400" font-style="normal" 
 >2023</text>
</g>
</g>

<g clip-path="url(#clipPath1)"><g fill="none" stroke="#666666" stroke-opacity="1" stroke-width="1" stroke-linecap="square" stroke-linejoin="bevel" transform="matrix(1,0,0,1,90,669)"
font-family="Calibri" font-size="20" font-weight="400" font-style="normal" 
>
<text fill="#666666" fill-opacity="1" stroke="none" xml:space="preserve" x="1209.05" y="26" font-family="Calibri" font-size="20" font-weight="400" font-style="normal" 
 >2024</text>
</g>
</g>

<g clip-path="url(#clipPath1)"><g fill="none" stroke="#333333" stroke-opacity="1" stroke-width="1" stroke-linecap="square" stroke-linejoin="bevel" transform="matrix(1,0,0,1,90,669)"
font-family="Calibri" font-size="20" font-weight="400" font-style="normal" 
>
<text fill="#333333" fill-opacity="1" stroke="none" xml:space="preserve" x="608.969" y="57" font-family="Calibri" font-size="20" font-weight="400" font-style="normal" 
 >Year</text>
</g>
</g>

<g fill="none" stroke="#333333" stroke-opacity="1" stroke-width="1" stroke-linecap="square" stroke-linejoin="bevel" transform="matrix(1,0,0,1,90,669)"
font-family="Calibri" font-size="20" font-weight="400" font-style="normal" 
>
</g>

<g clip-path="url(#clipPath2)"><g fill="none" stroke="#333333" stroke-opacity="1" stroke-width="1" stroke-linecap="square" stroke-linejoin="bevel" transform="matrix(1,0,0,1,0,43)"
font-family="Calibri" font-size="20" font-weight="400" font-style="normal" 
>
</g>
</g>

<g clip-path="url(#clipPath2)"><g fill="none" stroke="#000000" stroke-opacity="1" stroke-width="1" stroke-linecap="butt" stroke-linejoin="bevel" transform="matrix(1,0,0,1,0,43)"
font-family="Calibri" font-size="20" font-weight="400" font-style="normal" 
>
<polyline fill="none" vector-effect="none" points="85,626 90,626 " />
<polyline fill="none" vector-effect="none" points="85,563 90,563 " />
<polyline fill="none" vector-effect="none" points="85,501 90,501 " />
<polyline fill="none" vector-effect="none" points="85,438 90,438 " />
<polyline fill="none" vector-effect="none" points="85,376 90,376 " />
<polyline fill="none" vector-effect="none" points="85,313 90,313 " />
<polyline fill="none" vector-effect="none" points="85,250 90,250 " />
<polyline fill="none" vector-effect="none" points="85,188 90,188 " />
<polyline fill="none" vector-effect="none" points="85,125 90,125 " />
<polyline fill="none" vector-effect="none" points="85,63 90,63 " />
<polyline fill="none" vector-effect="none" points="85,0 90,0 " />
</g>
</g>

<g clip-path="url(#clipPath2)"><g fill="none" stroke="#666666" stroke-opacity="1" stroke-width="1" stroke-linecap="square" stroke-linejoin="bevel" transform="matrix(1,0,0,1,0,43)"
font-family="Arial" font-size="20" font-weight="400" font-style="normal" 
>
<text fill="#666666" fill-opacity="1" stroke="none" xml:space="preserve" x="54.1094" y="621" font-family="Arial" font-size="20" font-weight="400" font-style="normal" 
 >6%</text>
</g>
</g>

<g clip-path="url(#clipPath2)"><g fill="none" stroke="#666666" stroke-opacity="1" stroke-width="1" stroke-linecap="square" stroke-linejoin="bevel" transform="matrix(1,0,0,1,0,43)"
font-family="Arial" font-size="20" font-weight="400" font-style="normal" 
>
<text fill="#666666" fill-opacity="1" stroke="none" xml:space="preserve" x="54.1094" y="570" font-family="Arial" font-size="20" font-weight="400" font-style="normal" 
 >8%</text>
</g>
</g>

<g clip-path="url(#clipPath2)"><g fill="none" stroke="#666666" stroke-opacity="1" stroke-width="1" stroke-linecap="square" stroke-linejoin="bevel" transform="matrix(1,0,0,1,0,43)"
font-family="Arial" font-size="20" font-weight="400" font-style="normal" 
>
<text fill="#666666" fill-opacity="1" stroke="none" xml:space="preserve" x="43" y="508" font-family="Arial" font-size="20" font-weight="400" font-style="normal" 
 >10%</text>
</g>
</g>

<g clip-path="url(#clipPath2)"><g fill="none" stroke="#666666" stroke-opacity="1" stroke-width="1" stroke-linecap="square" stroke-linejoin="bevel" transform="matrix(1,0,0,1,0,43)"
font-family="Arial" font-size="20" font-weight="400" font-style="normal" 
>
<text fill="#666666" fill-opacity="1" stroke="none" xml:space="preserve" x="43" y="445" font-family="Arial" font-size="20" font-weight="400" font-style="normal" 
 >12%</text>
</g>
</g>

<g clip-path="url(#clipPath2)"><g fill="none" stroke="#666666" stroke-opacity="1" stroke-width="1" stroke-linecap="square" stroke-linejoin="bevel" transform="matrix(1,0,0,1,0,43)"
font-family="Arial" font-size="20" font-weight="400" font-style="normal" 
>
<text fill="#666666" fill-opacity="1" stroke="none" xml:space="preserve" x="43" y="383" font-family="Arial" font-size="20" font-weight="400" font-style="normal" 
 >14%</text>
</g>
</g>

<g clip-path="url(#clipPath2)"><g fill="none" stroke="#666666" stroke-opacity="1" stroke-width="1" stroke-linecap="square" stroke-linejoin="bevel" transform="matrix(1,0,0,1,0,43)"
font-family="Arial" font-size="20" font-weight="400" font-style="normal" 
>
<text fill="#666666" fill-opacity="1" stroke="none" xml:space="preserve" x="43" y="320" font-family="Arial" font-size="20" font-weight="400" font-style="normal" 
 >16%</text>
</g>
</g>

<g clip-path="url(#clipPath2)"><g fill="none" stroke="#666666" stroke-opacity="1" stroke-width="1" stroke-linecap="square" stroke-linejoin="bevel" transform="matrix(1,0,0,1,0,43)"
font-family="Arial" font-size="20" font-weight="400" font-style="normal" 
>
<text fill="#666666" fill-opacity="1" stroke="none" xml:space="preserve" x="43" y="257" font-family="Arial" font-size="20" font-weight="400" font-style="normal" 
 >18%</text>
</g>
</g>

<g clip-path="url(#clipPath2)"><g fill="none" stroke="#666666" stroke-opacity="1" stroke-width="1" stroke-linecap="square" stroke-linejoin="bevel" transform="matrix(1,0,0,1,0,43)"
font-family="Arial" font-size="20" font-weight="400" font-style="normal" 
>
<text fill="#666666" fill-opacity="1" stroke="none" xml:space="preserve" x="43" y="195" font-family="Arial" font-size="20" font-weight="400" font-style="normal" 
 >20%</text>
</g>
</g>

<g clip-path="url(#clipPath2)"><g fill="none" stroke="#666666" stroke-opacity="1" stroke-width="1" stroke-linecap="square" stroke-linejoin="bevel" transform="matrix(1,0,0,1,0,43)"
font-family="Arial" font-size="20" font-weight="400" font-style="normal" 
>
<text fill="#666666" fill-opacity="1" stroke="none" xml:space="preserve" x="43" y="132" font-family="Arial" font-size="20" font-weight="400" font-style="normal" 
 >22%</text>
</g>
</g>

<g clip-path="url(#clipPath2)"><g fill="none" stroke="#666666" stroke-opacity="1" stroke-width="1" stroke-linecap="square" stroke-linejoin="bevel" transform="matrix(1,0,0,1,0,43)"
font-family="Arial" font-size="20" font-weight="400" font-style="normal" 
>
<text fill="#666666" fill-opacity="1" stroke="none" xml:space="preserve" x="43" y="70" font-family="Arial" font-size="20" font-weight="400" font-style="normal" 
 >24%</text>
</g>
</g>

<g clip-path="url(#clipPath2)"><g fill="none" stroke="#666666" stroke-opacity="1" stroke-width="1" stroke-linecap="square" stroke-linejoin="bevel" transform="matrix(1,0,0,1,0,43)"
font-family="Arial" font-size="20" font-weight="400" font-style="normal" 
>
<text fill="#666666" fill-opacity="1" stroke="none" xml:space="preserve" x="43" y="19" font-family="Arial" font-size="20" font-weight="400" font-style="normal" 
 >26%</text>
</g>
</g>

<g clip-path="url(#clipPath2)"><g fill="none" stroke="#666666" stroke-opacity="1" stroke-width="1" stroke-linecap="square" stroke-linejoin="bevel" transform="matrix(1,0,0,1,0,43)"
font-family="Arial" font-size="20" font-weight="400" font-style="normal" 
>
</g>
</g>

<g clip-path="url(#clipPath2)"><g fill="none" stroke="#333333" stroke-opacity="1" stroke-width="1" stroke-linecap="square" stroke-linejoin="bevel" transform="matrix(0,-1,1,0,25.0938,463.281)"
font-family="Arial" font-size="20" font-weight="400" font-style="normal" 
>
<text fill="#333333" fill-opacity="1" stroke="none" xml:space="preserve" x="0" y="0" font-family="Arial" font-size="20" font-weight="400" font-style="normal" 
 >Average Food Insecurity</text>
</g>
</g>

<g clip-path="url(#clipPath2)"><g fill="none" stroke="#666666" stroke-opacity="1" stroke-width="1" stroke-linecap="square" stroke-linejoin="bevel" transform="matrix(1,0,0,1,0,43)"
font-family="Arial" font-size="20" font-weight="400" font-style="normal" 
>
</g>
</g>

<g fill="none" stroke="#666666" stroke-opacity="1" stroke-width="1" stroke-linecap="square" stroke-linejoin="bevel" transform="matrix(1,0,0,1,0,43)"
font-family="Arial" font-size="20" font-weight="400" font-style="normal" 
>
</g>

<g clip-path="url(#clipPath2)"><g fill="none" stroke="#666666" stroke-opacity="1" stroke-width="1" stroke-linecap="square" stroke-linejoin="bevel" transform="matrix(1,0,0,1,90,43)"
font-family="Arial" font-size="20" font-weight="400" font-style="normal" 
>
</g>
</g>

<g clip-path="url(#clipPath3)"><g fill="none" stroke="#666666" stroke-opacity="1" stroke-width="1" stroke-linecap="square" stroke-linejoin="bevel" transform="matrix(1,0,0,1,90,43)"
font-family="Arial" font-size="20" font-weight="400" font-style="normal" 
>
</g>
</g>

<g clip-path="url(#clipPath4)"><g fill="none" stroke="#666666" stroke-opacity="1" stroke-width="1" stroke-linecap="square" stroke-linejoin="bevel" transform="matrix(1,0,0,1,90,43)"
font-family="Arial" font-size="20" font-weight="400" font-style="normal" 
>
</g>
</g>

<g clip-path="url(#clipPath4)"><g fill="#ffffff" fill-opacity="1" stroke="none" transform="matrix(1,0,0,1,90,43)"
font-family="Arial" font-size="20" font-weight="400" font-style="normal" 
>
<rect x="0" y="0" width="1258" height="627"/>
</g>
</g>

<g clip-path="url(#clipPath4)"><g fill="#ffffff" fill-opacity="1" stroke="none" transform="matrix(1,0,0,1,90,43)"
font-family="Arial" font-size="20" font-weight="400" font-style="normal" 
>
<rect x="0" y="0" width="1258" height="627"/>
</g>
</g>

<g clip-path="url(#clipPath5)"><g fill="none" stroke="#666666" stroke-opacity="1" stroke-width="1" stroke-linecap="square" stroke-linejoin="bevel" transform="matrix(1,0,0,1,90,43)"
font-family="Arial" font-size="20" font-weight="400" font-style="normal" 
>
</g>
</g>

<g clip-path="url(#clipPath5)"><g fill="#ffffff" fill-opacity="1" stroke="none" transform="matrix(1,0,0,1,90,43)"
font-family="Arial" font-size="20" font-weight="400" font-style="normal" 
>
<rect x="0" y="0" width="1258" height="627"/>
</g>
</g>

<g clip-path="url(#clipPath6)"><g fill="none" stroke="#666666" stroke-opacity="1" stroke-width="1" stroke-linecap="square" stroke-linejoin="bevel" transform="matrix(1,0,0,1,90,43)"
font-family="Arial" font-size="20" font-weight="400" font-style="normal" 
>
</g>
</g>

<g clip-path="url(#clipPath7)"><g fill="none" stroke="#666666" stroke-opacity="1" stroke-width="1" stroke-linecap="square" stroke-linejoin="bevel" transform="matrix(1,0,0,1,90,43)"
font-family="Arial" font-size="20" font-weight="400" font-style="normal" 
>
</g>
</g>

<g clip-path="url(#clipPath8)"><g fill="none" stroke="#666666" stroke-opacity="1" stroke-width="1" stroke-linecap="square" stroke-linejoin="bevel" transform="matrix(1,0,0,1,90,43)"
font-family="Arial" font-size="20" font-weight="400" font-style="normal" 
>
</g>
</g>

<g clip-path="url(#clipPath9)"><g fill="none" stroke="#666666" stroke-opacity="1" stroke-width="1" stroke-linecap="square" stroke-linejoin="bevel" transform="matrix(1,0,0,1,90,43)"
font-family="Arial" font-size="20" font-weight="400" font-style="normal" 
>
</g>
</g>

<g clip-path="url(#clipPath9)"><g fill="#ffffff" fill-opacity="1" stroke="none" transform="matrix(1,0,0,1,90,43)"
font-family="Arial" font-size="20" font-weight="400" font-style="normal" 
>
<rect x="0" y="0" width="1258" height="627"/>
</g>
</g>

<g clip-path="url(#clipPath10)"><g fill="none" stroke="#666666" stroke-opacity="1" stroke-width="1" stroke-linecap="square" stroke-linejoin="bevel" transform="matrix(1,0,0,1,90,43)"
font-family="Arial" font-size="20" font-weight="400" font-style="normal" 
>
</g>
</g>

<g clip-path="url(#clipPath11)"><g fill="none" stroke="#666666" stroke-opacity="1" stroke-width="1" stroke-linecap="square" stroke-linejoin="bevel" transform="matrix(1,0,0,1,90,43)"
font-family="Arial" font-size="20" font-weight="400" font-style="normal" 
>
</g>
</g>

<g clip-path="url(#clipPath12)"><g fill="none" stroke="#666666" stroke-opacity="1" stroke-width="1" stroke-linecap="square" stroke-linejoin="bevel" transform="matrix(1,0,0,1,90,43)"
font-family="Arial" font-size="20" font-weight="400" font-style="normal" 
>
</g>
</g>

<g clip-path="url(#clipPath13)"><g fill="none" stroke="#666666" stroke-opacity="1" stroke-width="1" stroke-linecap="square" stroke-linejoin="bevel" transform="matrix(1,0,0,1,90,43)"
font-family="Arial" font-size="20" font-weight="400" font-style="normal" 
>
</g>
</g>

<g clip-path="url(#clipPath14)"><g fill="none" stroke="#666666" stroke-opacity="1" stroke-width="1" stroke-linecap="square" stroke-linejoin="bevel" transform="matrix(1,0,0,1,90,43)"
font-family="Arial" font-size="20" font-weight="400" font-style="normal" 
>
</g>
</g>

<g clip-path="url(#clipPath15)"><g fill="none" stroke="#666666" stroke-opacity="1" stroke-width="1" stroke-linecap="square" stroke-linejoin="bevel" transform="matrix(1,0,0,1,90,43)"
font-family="Arial" font-size="20" font-weight="400" font-style="normal" 
>
</g>
</g>

<g clip-path="url(#clipPath16)"><g fill="none" stroke="#666666" stroke-opacity="1" stroke-width="1" stroke-linecap="square" stroke-linejoin="bevel" transform="matrix(1,0,0,1,90,43)"
font-family="Arial" font-size="20" font-weight="400" font-style="normal" 
>
</g>
</g>

<g clip-path="url(#clipPath16)"><g fill="none" stroke="#762f3d" stroke-opacity="1" stroke-width="3" stroke-linecap="round" stroke-linejoin="round" transform="matrix(1,0,0,1,90,43)"
font-family="Arial" font-size="20" font-weight="400" font-style="normal" 
>
<polyline fill="none" vector-effect="none" points="210,512.961 419.5,578.016 629,562.648 838.5,493.322 1048,467.545 " />
</g>
</g>

<g clip-path="url(#clipPath16)"><g fill="none" stroke="#666666" stroke-opacity="1" stroke-width="1" stroke-linecap="square" stroke-linejoin="bevel" transform="matrix(1,0,0,1,90,43)"
font-family="Arial" font-size="20" font-weight="400" font-style="normal" 
>
<path vector-effect="none" fill-rule="nonzero" d="M0,0"/>
</g>
</g>

<g clip-path="url(#clipPath16)"><g fill="none" stroke="#ce6716" stroke-opacity="1" stroke-width="3" stroke-linecap="round" stroke-linejoin="round" transform="matrix(1,0,0,1,90,43)"
font-family="Arial" font-size="20" font-weight="400" font-style="normal" 
>
<polyline fill="none" vector-effect="none" points="210,211.03 419.5,196.157 629,247.928 838.5,77.4181 1048,16.889 " />
</g>
</g>

<g clip-path="url(#clipPath16)"><g fill="none" stroke="#666666" stroke-opacity="1" stroke-width="1" stroke-linecap="square" stroke-linejoin="bevel" transform="matrix(1,0,0,1,90,43)"
font-family="Arial" font-size="20" font-weight="400" font-style="normal" 
>
<path vector-effect="none" fill-rule="nonzero" d="M0,0"/>
</g>
</g>

<g clip-path="url(#clipPath17)"><g fill="none" stroke="#666666" stroke-opacity="1" stroke-width="1" stroke-linecap="square" stroke-linejoin="bevel" transform="matrix(1,0,0,1,90,43)"
font-family="Arial" font-size="20" font-weight="400" font-style="normal" 
>
</g>
</g>

<g clip-path="url(#clipPath18)"><g fill="none" stroke="#666666" stroke-opacity="1" stroke-width="1" stroke-linecap="square" stroke-linejoin="bevel" transform="matrix(1,0,0,1,90,43)"
font-family="Arial" font-size="20" font-weight="400" font-style="normal" 
>
</g>
</g>

<g clip-path="url(#clipPath18)"><g fill="none" stroke="#000000" stroke-opacity="1" stroke-width="1" stroke-linecap="square" stroke-linejoin="bevel" transform="matrix(1,0,0,1,90,43)"
font-family="Arial" font-size="20" font-weight="400" font-style="normal" 
>
<text fill="#000000" fill-opacity="1" stroke="none" xml:space="preserve" x="1052" y="23" font-family="Arial" font-size="20" font-weight="400" font-style="normal" 
 >Hispanic &amp; Black</text>
</g>
</g>

<g clip-path="url(#clipPath18)"><g fill="none" stroke="#000000" stroke-opacity="1" stroke-width="1" stroke-linecap="square" stroke-linejoin="bevel" transform="matrix(1,0,0,1,90,43)"
font-family="Arial" font-size="20" font-weight="400" font-style="normal" 
>
<text fill="#000000" fill-opacity="1" stroke="none" xml:space="preserve" x="1052" y="474" font-family="Arial" font-size="20" font-weight="400" font-style="normal" 
 >White</text>
</g>
</g>

<g clip-path="url(#clipPath19)"><g fill="none" stroke="#000000" stroke-opacity="1" stroke-width="1" stroke-linecap="square" stroke-linejoin="bevel" transform="matrix(1,0,0,1,90,43)"
font-family="Arial" font-size="20" font-weight="400" font-style="normal" 
>
</g>
</g>

<g clip-path="url(#clipPath20)"><g fill="none" stroke="#000000" stroke-opacity="1" stroke-width="1" stroke-linecap="square" stroke-linejoin="bevel" transform="matrix(1,0,0,1,90,43)"
font-family="Arial" font-size="20" font-weight="400" font-style="normal" 
>
</g>
</g>

<g clip-path="url(#clipPath21)"><g fill="none" stroke="#000000" stroke-opacity="1" stroke-width="1" stroke-linecap="square" stroke-linejoin="bevel" transform="matrix(1,0,0,1,90,43)"
font-family="Arial" font-size="20" font-weight="400" font-style="normal" 
>
</g>
</g>

<g clip-path="url(#clipPath22)"><g fill="none" stroke="#000000" stroke-opacity="1" stroke-width="1" stroke-linecap="square" stroke-linejoin="bevel" transform="matrix(1,0,0,1,90,43)"
font-family="Arial" font-size="20" font-weight="400" font-style="normal" 
>
</g>
</g>

<g clip-path="url(#clipPath23)"><g fill="none" stroke="#000000" stroke-opacity="1" stroke-width="1" stroke-linecap="square" stroke-linejoin="bevel" transform="matrix(1,0,0,1,90,43)"
font-family="Arial" font-size="20" font-weight="400" font-style="normal" 
>
</g>
</g>

<g clip-path="url(#clipPath24)"><g fill="none" stroke="#000000" stroke-opacity="1" stroke-width="1" stroke-linecap="square" stroke-linejoin="bevel" transform="matrix(1,0,0,1,90,43)"
font-family="Arial" font-size="20" font-weight="400" font-style="normal" 
>
</g>
</g>

<g clip-path="url(#clipPath25)"><g fill="none" stroke="#000000" stroke-opacity="1" stroke-width="1" stroke-linecap="square" stroke-linejoin="bevel" transform="matrix(1,0,0,1,90,43)"
font-family="Arial" font-size="20" font-weight="400" font-style="normal" 
>
</g>
</g>

<g clip-path="url(#clipPath26)"><g fill="none" stroke="#000000" stroke-opacity="1" stroke-width="1" stroke-linecap="square" stroke-linejoin="bevel" transform="matrix(1,0,0,1,90,43)"
font-family="Arial" font-size="20" font-weight="400" font-style="normal" 
>
</g>
</g>

<g clip-path="url(#clipPath27)"><g fill="none" stroke="#000000" stroke-opacity="1" stroke-width="1" stroke-linecap="square" stroke-linejoin="bevel" transform="matrix(1,0,0,1,90,43)"
font-family="Arial" font-size="20" font-weight="400" font-style="normal" 
>
</g>
</g>

<g clip-path="url(#clipPath28)"><g fill="none" stroke="#000000" stroke-opacity="1" stroke-width="1" stroke-linecap="square" stroke-linejoin="bevel" transform="matrix(1,0,0,1,90,43)"
font-family="Arial" font-size="20" font-weight="400" font-style="normal" 
>
</g>
</g>

<g clip-path="url(#clipPath29)"><g fill="none" stroke="#000000" stroke-opacity="1" stroke-width="1" stroke-linecap="square" stroke-linejoin="bevel" transform="matrix(1,0,0,1,90,43)"
font-family="Arial" font-size="20" font-weight="400" font-style="normal" 
>
</g>
</g>

<g clip-path="url(#clipPath30)"><g fill="none" stroke="#000000" stroke-opacity="1" stroke-width="1" stroke-linecap="square" stroke-linejoin="bevel" transform="matrix(1,0,0,1,90,43)"
font-family="Arial" font-size="20" font-weight="400" font-style="normal" 
>
</g>
</g>

<g clip-path="url(#clipPath31)"><g fill="none" stroke="#000000" stroke-opacity="1" stroke-width="1" stroke-linecap="square" stroke-linejoin="bevel" transform="matrix(1,0,0,1,90,43)"
font-family="Arial" font-size="20" font-weight="400" font-style="normal" 
>
</g>
</g>

<g clip-path="url(#clipPath32)"><g fill="none" stroke="#000000" stroke-opacity="1" stroke-width="1" stroke-linecap="square" stroke-linejoin="bevel" transform="matrix(1,0,0,1,90,43)"
font-family="Arial" font-size="20" font-weight="400" font-style="normal" 
>
</g>
</g>

<g clip-path="url(#clipPath33)"><g fill="none" stroke="#000000" stroke-opacity="1" stroke-width="1" stroke-linecap="square" stroke-linejoin="bevel" transform="matrix(1,0,0,1,90,43)"
font-family="Arial" font-size="20" font-weight="400" font-style="normal" 
>
</g>
</g>

<g clip-path="url(#clipPath34)"><g fill="none" stroke="#000000" stroke-opacity="1" stroke-width="1" stroke-linecap="square" stroke-linejoin="bevel" transform="matrix(1,0,0,1,90,43)"
font-family="Arial" font-size="20" font-weight="400" font-style="normal" 
>
</g>
</g>

<g clip-path="url(#clipPath35)"><g fill="none" stroke="#000000" stroke-opacity="1" stroke-width="1" stroke-linecap="square" stroke-linejoin="bevel" transform="matrix(1,0,0,1,90,43)"
font-family="Arial" font-size="20" font-weight="400" font-style="normal" 
>
</g>
</g>

<g clip-path="url(#clipPath36)"><g fill="none" stroke="#000000" stroke-opacity="1" stroke-width="1" stroke-linecap="square" stroke-linejoin="bevel" transform="matrix(1,0,0,1,90,43)"
font-family="Arial" font-size="20" font-weight="400" font-style="normal" 
>
</g>
</g>

<g clip-path="url(#clipPath37)"><g fill="none" stroke="#000000" stroke-opacity="1" stroke-width="1" stroke-linecap="square" stroke-linejoin="bevel" transform="matrix(1,0,0,1,90,43)"
font-family="Arial" font-size="20" font-weight="400" font-style="normal" 
>
</g>
</g>

<g clip-path="url(#clipPath38)"><g fill="none" stroke="#000000" stroke-opacity="1" stroke-width="1" stroke-linecap="square" stroke-linejoin="bevel" transform="matrix(1,0,0,1,90,43)"
font-family="Arial" font-size="20" font-weight="400" font-style="normal" 
>
</g>
</g>

<g clip-path="url(#clipPath39)"><g fill="none" stroke="#000000" stroke-opacity="1" stroke-width="1" stroke-linecap="square" stroke-linejoin="bevel" transform="matrix(1,0,0,1,90,43)"
font-family="Arial" font-size="20" font-weight="400" font-style="normal" 
>
</g>
</g>

<g clip-path="url(#clipPath40)"><g fill="none" stroke="#000000" stroke-opacity="1" stroke-width="1" stroke-linecap="square" stroke-linejoin="bevel" transform="matrix(1,0,0,1,90,43)"
font-family="Arial" font-size="20" font-weight="400" font-style="normal" 
>
</g>
</g>

<g clip-path="url(#clipPath41)"><g fill="none" stroke="#000000" stroke-opacity="1" stroke-width="1" stroke-linecap="square" stroke-linejoin="bevel" transform="matrix(1,0,0,1,90,43)"
font-family="Arial" font-size="20" font-weight="400" font-style="normal" 
>
</g>
</g>

<g clip-path="url(#clipPath41)"><g fill="none" stroke="#000000" stroke-opacity="1" stroke-width="1" stroke-linecap="square" stroke-linejoin="bevel" transform="matrix(1,0,0,1,90,43)"
font-family="Arial" font-size="20" font-weight="400" font-style="normal" 
>
<polyline fill="none" vector-effect="none" points="0,626 1257,626 " />
<polyline fill="none" vector-effect="none" points="0,0 0,626 " />
</g>
</g>

<g clip-path="url(#clipPath42)"><g fill="none" stroke="#000000" stroke-opacity="1" stroke-width="1" stroke-linecap="square" stroke-linejoin="bevel" transform="matrix(1,0,0,1,90,43)"
font-family="Arial" font-size="20" font-weight="400" font-style="normal" 
>
</g>
</g>

<g fill="none" stroke="#000000" stroke-opacity="1" stroke-width="1" stroke-linecap="square" stroke-linejoin="bevel" transform="matrix(1,0,0,1,90,43)"
font-family="Arial" font-size="20" font-weight="400" font-style="normal" 
>
</g>

<g fill="none" stroke="#333333" stroke-opacity="1" stroke-width="1" stroke-linecap="square" stroke-linejoin="bevel" transform="matrix(1,0,0,1,0,0)"
font-family="Arial" font-size="20" font-weight="400" font-style="normal" 
>
<text fill="#333333" fill-opacity="1" stroke="none" xml:space="preserve" x="4" y="27" font-family="Arial" font-size="20" font-weight="400" font-style="normal" 
 >Average Food Insecurity by Race</text>
</g>

<g fill="none" stroke="#666666" stroke-opacity="1" stroke-width="1" stroke-linecap="square" stroke-linejoin="bevel" transform="matrix(1,0,0,1,0,0)"
font-family="Arial" font-size="20" font-weight="400" font-style="normal" 
>
<text fill="#666666" fill-opacity="1" stroke="none" xml:space="preserve" x="0" y="781" font-family="Arial" font-size="20" font-weight="400" font-style="normal" 
 >The trend of sum of Average Food Insecurity for Year1.  Color shows details about Race1.  The marks are labeled by Race1.</text>
</g>
</g>
</svg>
